<svg width="34" height="68" viewBox="0 0 34 68" fill="none" xmlns="http://www.w3.org/2000/svg">
<mask id="path-1-outside-1_1_6" maskUnits="userSpaceOnUse" x="-1" y="-1" width="36" height="70" fill="black">
<rect fill="white" x="-1" y="-1" width="36" height="70"/>
<path d="M0.576625 0.799995H16.2246C21.6646 0.799995 25.6326 2.08 28.1286 4.64C30.6246 7.136 31.8726 11.008 31.8726 16.256V20.384C31.8726 27.36 29.5686 31.776 24.9606 33.632V33.824C27.5206 34.592 29.3126 36.16 30.3366 38.528C31.4246 40.896 31.9686 44.064 31.9686 48.032V59.84C31.9686 61.76 32.0326 63.328 32.1606 64.544C32.2886 65.696 32.6086 66.848 33.1206 68H22.3686C21.9846 66.912 21.7286 65.888 21.6006 64.928C21.4726 63.968 21.4086 62.24 21.4086 59.744V47.456C21.4086 44.384 20.8966 42.24 19.8726 41.024C18.9126 39.808 17.2166 39.2 14.7846 39.2H11.1366V68H0.576625V0.799995ZM14.9766 29.6C17.0886 29.6 18.6566 29.056 19.6806 27.968C20.7686 26.88 21.3126 25.056 21.3126 22.496V17.312C21.3126 14.88 20.8646 13.12 19.9686 12.032C19.1366 10.944 17.7926 10.4 15.9366 10.4H11.1366V29.6H14.9766Z"/>
</mask>
<g filter="url(#filter0_i_1_6)">
<path d="M0.576625 0.799995H16.2246C21.6646 0.799995 25.6326 2.08 28.1286 4.64C30.6246 7.136 31.8726 11.008 31.8726 16.256V20.384C31.8726 27.36 29.5686 31.776 24.9606 33.632V33.824C27.5206 34.592 29.3126 36.16 30.3366 38.528C31.4246 40.896 31.9686 44.064 31.9686 48.032V59.84C31.9686 61.76 32.0326 63.328 32.1606 64.544C32.2886 65.696 32.6086 66.848 33.1206 68H22.3686C21.9846 66.912 21.7286 65.888 21.6006 64.928C21.4726 63.968 21.4086 62.24 21.4086 59.744V47.456C21.4086 44.384 20.8966 42.24 19.8726 41.024C18.9126 39.808 17.2166 39.2 14.7846 39.2H11.1366V68H0.576625V0.799995ZM14.9766 29.6C17.0886 29.6 18.6566 29.056 19.6806 27.968C20.7686 26.88 21.3126 25.056 21.3126 22.496V17.312C21.3126 14.88 20.8646 13.12 19.9686 12.032C19.1366 10.944 17.7926 10.4 15.9366 10.4H11.1366V29.6H14.9766Z" fill="#DB0505"/>
</g>
<path d="M0.576625 0.799995V-0.200005H-0.423375V0.799995H0.576625ZM28.1286 4.64L27.4126 5.33815L27.4215 5.3471L28.1286 4.64ZM24.9606 33.632L24.587 32.7044L23.9606 32.9567V33.632H24.9606ZM24.9606 33.824H23.9606V34.568L24.6733 34.7818L24.9606 33.824ZM30.3366 38.528L29.4188 38.9249L29.4232 38.9353L29.4279 38.9455L30.3366 38.528ZM32.1606 64.544L31.1661 64.6487L31.1667 64.6544L32.1606 64.544ZM33.1206 68V69H34.6594L34.0344 67.5939L33.1206 68ZM22.3686 68L21.4256 68.3328L21.6611 69H22.3686V68ZM19.8726 41.024L19.0877 41.6436L19.0975 41.656L19.1077 41.6681L19.8726 41.024ZM11.1366 39.2V38.2H10.1366V39.2H11.1366ZM11.1366 68V69H12.1366V68H11.1366ZM0.576625 68H-0.423375V69H0.576625V68ZM19.6806 27.968L18.9735 27.2609L18.9628 27.2716L18.9524 27.2826L19.6806 27.968ZM19.9686 12.032L19.1743 12.6394L19.1852 12.6538L19.1967 12.6677L19.9686 12.032ZM11.1366 10.4V9.4H10.1366V10.4H11.1366ZM11.1366 29.6H10.1366V30.6H11.1366V29.6ZM0.576625 1.8H16.2246V-0.200005H0.576625V1.8ZM16.2246 1.8C21.5337 1.8 25.1835 3.05185 27.4126 5.3381L28.8446 3.9419C26.0817 1.10814 21.7955 -0.200005 16.2246 -0.200005V1.8ZM27.4215 5.3471C29.6556 7.58116 30.8726 11.1452 30.8726 16.256H32.8726C32.8726 10.8708 31.5937 6.69083 28.8357 3.93289L27.4215 5.3471ZM30.8726 16.256V20.384H32.8726V16.256H30.8726ZM30.8726 20.384C30.8726 23.7717 30.3117 26.4458 29.258 28.4654C28.2159 30.4629 26.6695 31.8656 24.587 32.7044L25.3342 34.5596C27.8598 33.5423 29.7694 31.8091 31.0312 29.3906C32.2815 26.9942 32.8726 23.9723 32.8726 20.384H30.8726ZM23.9606 33.632V33.824H25.9606V33.632H23.9606ZM24.6733 34.7818C26.9623 35.4685 28.5166 36.8387 29.4188 38.9249L31.2545 38.1311C30.1086 35.4812 28.0789 33.7155 25.248 32.8662L24.6733 34.7818ZM29.4279 38.9455C30.4327 41.1322 30.9686 44.1399 30.9686 48.032H32.9686C32.9686 43.9881 32.4166 40.6598 31.2453 38.1105L29.4279 38.9455ZM30.9686 48.032V59.84H32.9686V48.032H30.9686ZM30.9686 59.84C30.9686 61.7777 31.033 63.3842 31.1661 64.6487L33.1551 64.4393C33.0322 63.2718 32.9686 61.7423 32.9686 59.84H30.9686ZM31.1667 64.6544C31.307 65.9171 31.6567 67.1685 32.2068 68.4061L34.0344 67.5939C33.5605 66.5275 33.2702 65.4749 33.1545 64.4336L31.1667 64.6544ZM33.1206 67H22.3686V69H33.1206V67ZM23.3116 67.6672C22.9464 66.6323 22.7092 65.676 22.5919 64.7958L20.6094 65.0602C20.748 66.1 21.0229 67.1917 21.4256 68.3328L23.3116 67.6672ZM22.5919 64.7958C22.4737 63.9099 22.4086 62.2435 22.4086 59.744H20.4086C20.4086 62.2365 20.4715 64.0261 20.6094 65.0602L22.5919 64.7958ZM22.4086 59.744V47.456H20.4086V59.744H22.4086ZM22.4086 47.456C22.4086 44.3378 21.9021 41.8815 20.6375 40.3799L19.1077 41.6681C19.8912 42.5985 20.4086 44.4302 20.4086 47.456H22.4086ZM20.6575 40.4044C19.4206 38.8376 17.3469 38.2 14.7846 38.2V40.2C17.0864 40.2 18.4046 40.7784 19.0877 41.6436L20.6575 40.4044ZM14.7846 38.2H11.1366V40.2H14.7846V38.2ZM10.1366 39.2V68H12.1366V39.2H10.1366ZM11.1366 67H0.576625V69H11.1366V67ZM1.57663 68V0.799995H-0.423375V68H1.57663ZM14.9766 30.6C17.2479 30.6 19.1286 30.0136 20.4088 28.6534L18.9524 27.2826C18.1846 28.0984 16.9293 28.6 14.9766 28.6V30.6ZM20.3877 28.6751C21.755 27.3078 22.3126 25.1546 22.3126 22.496H20.3126C20.3126 24.9574 19.7822 26.4522 18.9735 27.2609L20.3877 28.6751ZM22.3126 22.496V17.312H20.3126V22.496H22.3126ZM22.3126 17.312C22.3126 14.8006 21.8582 12.7535 20.7406 11.3963L19.1967 12.6677C19.871 13.4865 20.3126 14.9594 20.3126 17.312H22.3126ZM20.763 11.4245C19.6797 10.008 17.9853 9.4 15.9366 9.4V11.4C17.6 11.4 18.5935 11.88 19.1743 12.6394L20.763 11.4245ZM15.9366 9.4H11.1366V11.4H15.9366V9.4ZM10.1366 10.4V29.6H12.1366V10.4H10.1366ZM11.1366 30.6H14.9766V28.6H11.1366V30.6Z" fill="black" mask="url(#path-1-outside-1_1_6)"/>
<defs>
<filter id="filter0_i_1_6" x="0.57663" y="0.800049" width="32.544" height="71.2" filterUnits="userSpaceOnUse" color-interpolation-filters="sRGB">
<feFlood flood-opacity="0" result="BackgroundImageFix"/>
<feBlend mode="normal" in="SourceGraphic" in2="BackgroundImageFix" result="shape"/>
<feColorMatrix in="SourceAlpha" type="matrix" values="0 0 0 0 0 0 0 0 0 0 0 0 0 0 0 0 0 0 127 0" result="hardAlpha"/>
<feOffset dy="4"/>
<feGaussianBlur stdDeviation="2"/>
<feComposite in2="hardAlpha" operator="arithmetic" k2="-1" k3="1"/>
<feColorMatrix type="matrix" values="0 0 0 0 0 0 0 0 0 0 0 0 0 0 0 0 0 0 0.25 0"/>
<feBlend mode="normal" in2="shape" result="effect1_innerShadow_1_6"/>
</filter>
</defs>
</svg>
